<svg width="52" height="52" viewBox="0 0 52 52" fill="none" xmlns="http://www.w3.org/2000/svg">
<circle cx="26" cy="26" r="26" fill="#171941"/>
<path d="M24 16C24 15.016 23.187 14 22 14C21.469 14 21.006 14.193 20.62 14.58L10.662 24.538C10.334 24.866 10 25.271 10 26C10 26.729 10.279 27.08 10.646 27.447L20.62 37.42C21.006 37.807 21.469 38 22 38C23.188 38 24 36.984 24 36C24 35.484 23.814 35.014 23.42 34.62L14.8 26L23.42 17.38C23.814 16.986 24 16.516 24 16ZM41.338 24.538L31.38 14.58C30.994 14.193 30.531 14 30 14C28.812 14 28 15.016 28 16C28 16.516 28.186 16.986 28.58 17.38L37.2 26L28.58 34.62C28.186 35.014 28 35.484 28 36C28 36.984 28.813 38 30 38C30.531 38 30.994 37.807 31.38 37.42L41.354 27.447C41.721 27.08 42 26.729 42 26C42 25.271 41.666 24.866 41.338 24.538Z" fill="url(#paint0_linear)"/>
<defs>
<linearGradient id="paint0_linear" x1="10" y1="26" x2="42" y2="26" gradientUnits="userSpaceOnUse">
<stop stop-color="#54249A"/>
<stop offset="1" stop-color="#3E4AB9"/>
</linearGradient>
</defs>
</svg>
