<svg width="52" height="52" viewBox="0 0 52 52" fill="none" xmlns="http://www.w3.org/2000/svg">
<circle cx="26" cy="26" r="26" fill="#171941"/>
<path d="M33.2407 41.0507H18.5859V42.0001H33.2407V41.0507Z" fill="url(#paint0_linear)"/>
<path d="M12.4082 12.8323C13.0178 12.8323 13.5368 12.4422 13.7323 11.8991H24.5228V12.0495C24.5228 12.4899 24.8811 12.8482 25.3216 12.8482H26.5724C27.0128 12.8482 27.371 12.4899 27.371 12.0495V11.8991H38.0946C38.29 12.4422 38.8089 12.8323 39.4185 12.8323C40.195 12.8323 40.8267 12.2006 40.8267 11.4241C40.8267 10.6476 40.195 10.0159 39.4185 10.0159C38.8086 10.0159 38.2896 10.4062 38.0943 10.9497H27.3711V10.7987C27.3711 10.3583 27.0129 10 26.5725 10H25.3217C24.8812 10 24.5229 10.3583 24.5229 10.7987V10.9497H13.7325C13.5371 10.4062 13.0181 10.0159 12.4082 10.0159C11.6317 10.0159 11 10.6476 11 11.4241C11 12.2005 11.6317 12.8323 12.4082 12.8323ZM39.4186 10.9652C39.6716 10.9652 39.8774 11.171 39.8774 11.424C39.8774 11.677 39.6716 11.8828 39.4186 11.8828C39.1656 11.8828 38.9597 11.677 38.9597 11.424C38.9597 11.171 39.1656 10.9652 39.4186 10.9652ZM25.4723 10.9494H26.4217V11.8988H25.4723V10.9494V10.9494ZM12.4082 10.9652C12.6613 10.9652 12.8671 11.171 12.8671 11.424C12.8671 11.677 12.6613 11.8828 12.4082 11.8828C12.1552 11.8828 11.9494 11.677 11.9494 11.424C11.9494 11.171 12.1552 10.9652 12.4082 10.9652Z" fill="url(#paint1_linear)"/>
<path d="M35.8707 29.5325L27.8492 14.987C27.7231 14.766 27.4627 14.6574 27.2173 14.7224C26.9714 14.7877 26.7996 15.0109 26.7996 15.2654V26.3095C26.7996 26.7839 26.9711 27.2266 27.2825 27.5562C27.6541 27.9493 27.8344 28.4648 27.79 29.0073C27.7149 29.9291 26.9615 30.6685 26.0375 30.7273C25.5096 30.7606 25.0085 30.5812 24.6254 30.2216C24.2418 29.8617 24.0306 29.3739 24.0306 28.8482C24.0306 28.3726 24.2086 27.9185 24.5319 27.5697C24.8514 27.2248 25.0275 26.7884 25.0275 26.3409V15.3831C25.0275 15.1287 24.8556 14.9054 24.6097 14.8402C24.3638 14.7748 24.104 14.8837 23.9745 15.1108L16.027 29.5265C15.6047 30.2659 15.7217 31.1998 16.3089 31.8123L21.8248 39.4546C22.0901 39.8223 22.5193 40.0419 22.973 40.0419H28.9216C29.3751 40.0419 29.8044 39.8223 30.0698 39.4547L35.5857 31.8123C36.1726 31.1998 36.2896 30.266 35.8707 29.5325ZM34.8856 31.1701L34.8587 31.1971L29.2997 38.899C29.2123 39.0201 29.0708 39.0924 28.9214 39.0924H22.9728C22.8233 39.0924 22.6819 39.0201 22.5945 38.8989L17.0579 31.2279L17.0356 31.1971L17.0087 31.1701C16.6987 30.8601 16.634 30.3778 16.855 29.9909L24.0782 16.8891V26.341C24.0782 26.5485 23.992 26.7557 23.8357 26.9245C23.3492 27.4494 23.0813 28.1326 23.0813 28.8483C23.0813 29.6277 23.4073 30.3805 23.9758 30.914C24.5522 31.4549 25.305 31.7255 26.0979 31.6749C27.489 31.5864 28.6233 30.4728 28.7364 29.0846C28.8019 28.2819 28.5235 27.4872 27.9726 26.9041C27.8285 26.7518 27.7491 26.5405 27.7491 26.3096V16.7711L35.043 29.9972C35.2603 30.3778 35.1956 30.8601 34.8856 31.1701Z" fill="url(#paint2_linear)"/>
<defs>
<linearGradient id="paint0_linear" x1="20.2122" y1="44.8169" x2="31.6144" y2="38.2338" gradientUnits="userSpaceOnUse">
<stop stop-color="#F14D5C"/>
<stop offset="0.1309" stop-color="#F05454"/>
<stop offset="0.3346" stop-color="#ED663E"/>
<stop offset="0.3492" stop-color="#ED683C"/>
<stop offset="0.714" stop-color="#F3903F"/>
<stop offset="1" stop-color="#FDC70C"/>
</linearGradient>
<linearGradient id="paint1_linear" x1="14.5652" y1="17.9759" x2="37.2617" y2="4.87214" gradientUnits="userSpaceOnUse">
<stop stop-color="#F14D5C"/>
<stop offset="0.1309" stop-color="#F05454"/>
<stop offset="0.3346" stop-color="#ED663E"/>
<stop offset="0.3492" stop-color="#ED683C"/>
<stop offset="0.714" stop-color="#F3903F"/>
<stop offset="1" stop-color="#FDC70C"/>
</linearGradient>
<linearGradient id="paint2_linear" x1="16.9889" y1="33.1008" x2="32.9776" y2="23.8698" gradientUnits="userSpaceOnUse">
<stop stop-color="#F14D5C"/>
<stop offset="0.1309" stop-color="#F05454"/>
<stop offset="0.3346" stop-color="#ED663E"/>
<stop offset="0.3492" stop-color="#ED683C"/>
<stop offset="0.714" stop-color="#F3903F"/>
<stop offset="1" stop-color="#FDC70C"/>
</linearGradient>
</defs>
</svg>
