<svg width="50" height="50" viewBox="0 0 50 50" fill="none" xmlns="http://www.w3.org/2000/svg">
<path fill-rule="evenodd" clip-rule="evenodd" d="M18.8301 48.6249C18.8301 48.0183 18.8087 46.4135 18.7965 44.282C11.8708 45.8242 10.4095 40.8591 10.4095 40.8591C9.27689 37.9096 7.64443 37.1244 7.64443 37.1244C5.38375 35.5399 7.81562 35.5728 7.81562 35.5728C10.3147 35.7531 11.6293 38.2042 11.6293 38.2042C13.8502 42.1051 17.456 40.9798 18.876 40.3263C19.1022 38.676 19.7457 37.5507 20.4565 36.9128C14.9278 36.2687 9.11486 34.0777 9.11486 24.2949C9.11486 21.5083 10.0855 19.2296 11.6782 17.4445C11.4229 16.7988 10.567 14.2034 11.9228 10.6881C11.9228 10.6881 14.0138 10.0016 18.769 13.3054C20.7545 12.7396 22.8853 12.4544 25.0038 12.445C27.1177 12.4544 29.247 12.7396 31.2371 13.3054C35.9893 10.0016 38.0772 10.6881 38.0772 10.6881C39.4361 14.2018 38.5816 16.7972 38.3248 17.4445C39.9206 19.2296 40.8836 21.5083 40.8836 24.2949C40.8836 34.1027 35.0614 36.2608 29.5145 36.8924C30.4102 37.6808 31.205 39.2386 31.205 41.6208C31.205 45.0343 31.1729 47.7879 31.1729 48.6249C31.1729 49.3082 31.6223 50.1012 32.8864 49.852C42.7713 46.4699 49.8988 36.9065 49.8988 25.6318C49.8988 11.5313 38.7498 0.101318 24.9992 0.101318C11.2502 0.101318 0.101196 11.5313 0.101196 25.6318C0.102725 36.9097 7.23632 46.4793 17.1304 49.8551C18.3746 50.0887 18.8301 49.3003 18.8301 48.6249Z" fill="url(#paint0_linear)"/>
<defs>
<linearGradient id="paint0_linear" x1="25" y1="0.101318" x2="25" y2="49.8989" gradientUnits="userSpaceOnUse">
<stop stop-color="#FF8279"/>
<stop offset="1" stop-color="#FF7088"/>
</linearGradient>
</defs>
</svg>
