<svg width="50" height="50" viewBox="0 0 50 50" fill="none" xmlns="http://www.w3.org/2000/svg">
<path fill-rule="evenodd" clip-rule="evenodd" d="M25 0C38.7979 0 50 11.2021 50 25C50 38.7979 38.7979 50 25 50C11.2021 50 0 38.7979 0 25C0 11.2021 11.2021 0 25 0ZM25 9.375C20.7565 9.375 20.2244 9.39297 18.5578 9.46904C16.8947 9.54492 15.7589 9.80908 14.7649 10.1953C13.7375 10.5946 12.8661 11.1289 11.9975 11.9976C11.1288 12.8662 10.5945 13.7376 10.1952 14.765C9.80898 15.7589 9.54492 16.8947 9.46895 18.5578C9.39297 20.2244 9.375 20.7565 9.375 25C9.375 29.2435 9.39297 29.7756 9.46895 31.4422C9.54492 33.1053 9.80898 34.2411 10.1952 35.235C10.5945 36.2624 11.1288 37.1338 11.9975 38.0025C12.8661 38.8712 13.7375 39.4055 14.7649 39.8048C15.7589 40.1909 16.8947 40.4551 18.5578 40.531C20.2244 40.607 20.7565 40.625 25 40.625C29.2435 40.625 29.7756 40.607 31.4422 40.531C33.1053 40.4551 34.2411 40.1909 35.235 39.8048C36.2624 39.4055 37.1338 38.8712 38.0025 38.0025C38.8712 37.1338 39.4055 36.2624 39.8048 35.235C40.1909 34.2411 40.4551 33.1053 40.531 31.4422C40.607 29.7756 40.625 29.2435 40.625 25C40.625 20.7565 40.607 20.2244 40.531 18.5578C40.4551 16.8947 40.1909 15.7589 39.8048 14.765C39.4055 13.7376 38.8712 12.8662 38.0025 11.9976C37.1338 11.1289 36.2624 10.5946 35.235 10.1953C34.2411 9.80908 33.1053 9.54492 31.4422 9.46904C29.7756 9.39297 29.2435 9.375 25 9.375ZM25 12.1903C29.1721 12.1903 29.6662 12.2063 31.3139 12.2814C32.8373 12.351 33.6646 12.6055 34.2151 12.8194C34.9445 13.1028 35.465 13.4415 36.0117 13.9883C36.5586 14.535 36.8972 15.0556 37.1806 15.7849C37.3945 16.3354 37.6491 17.1627 37.7186 18.6861C37.7938 20.3338 37.8097 20.8279 37.8097 25C37.8097 29.1721 37.7938 29.6662 37.7186 31.3139C37.6491 32.8373 37.3945 33.6646 37.1806 34.2151C36.8972 34.9445 36.5586 35.465 36.0117 36.0117C35.465 36.5586 34.9445 36.8972 34.2151 37.1806C33.6646 37.3945 32.8373 37.6491 31.3139 37.7186C29.6665 37.7938 29.1724 37.8097 25 37.8097C20.8276 37.8097 20.3336 37.7938 18.6861 37.7186C17.1627 37.6491 16.3354 37.3945 15.7849 37.1806C15.0555 36.8972 14.535 36.5586 13.9882 36.0117C13.4414 35.465 13.1028 34.9445 12.8194 34.2151C12.6055 33.6646 12.3509 32.8373 12.2813 31.3139C12.2062 29.6662 12.1903 29.1721 12.1903 25C12.1903 20.8279 12.2062 20.3338 12.2813 18.6861C12.3509 17.1627 12.6055 16.3354 12.8194 15.7849C13.1028 15.0556 13.4414 14.535 13.9882 13.9883C14.535 13.4415 15.0555 13.1028 15.7849 12.8194C16.3354 12.6055 17.1627 12.351 18.6861 12.2814C20.3338 12.2063 20.8279 12.1903 25 12.1903ZM25 16.9764C20.5687 16.9764 16.9764 20.5687 16.9764 25C16.9764 29.4313 20.5687 33.0236 25 33.0236C29.4313 33.0236 33.0236 29.4313 33.0236 25C33.0236 20.5687 29.4313 16.9764 25 16.9764V16.9764ZM25 30.2083C22.1235 30.2083 19.7917 27.8765 19.7917 25C19.7917 22.1235 22.1235 19.7917 25 19.7917C27.8765 19.7917 30.2083 22.1235 30.2083 25C30.2083 27.8765 27.8765 30.2083 25 30.2083V30.2083ZM35.2157 16.6594C35.2157 17.6949 34.3762 18.5343 33.3406 18.5343C32.3052 18.5343 31.4657 17.6949 31.4657 16.6594C31.4657 15.6238 32.3052 14.7844 33.3406 14.7844C34.3762 14.7844 35.2157 15.6238 35.2157 16.6594Z" fill="url(#paint0_linear)"/>
<defs>
<linearGradient id="paint0_linear" x1="25" y1="0" x2="25" y2="50" gradientUnits="userSpaceOnUse">
<stop stop-color="#FF8279"/>
<stop offset="1" stop-color="#FF7088"/>
</linearGradient>
</defs>
</svg>
