<svg width="50" height="50" viewBox="0 0 50 50" fill="none" xmlns="http://www.w3.org/2000/svg">
<path d="M25 0C11.1937 0 0 11.1922 0 25C0 38.8063 11.1937 50 25 50C38.8063 50 50 38.8063 50 25C50 11.1922 38.8063 0 25 0ZM18.5062 34.8078H13.4062V19.4641H18.5062V34.8078ZM15.9562 17.3688H15.9234C14.2109 17.3688 13.1047 16.1891 13.1047 14.7172C13.1047 13.2125 14.2453 12.0672 15.9891 12.0672C17.7328 12.0672 18.8078 13.2125 18.8406 14.7172C18.8406 16.1906 17.7328 17.3688 15.9562 17.3688ZM36.8953 34.8078H31.7953V26.5984C31.7953 24.5359 31.0578 23.1297 29.2109 23.1297C27.8031 23.1297 26.9641 24.0781 26.5953 24.9953C26.4609 25.3234 26.4266 25.7812 26.4266 26.2391V34.8078H21.3281C21.3281 34.8078 21.3953 20.9047 21.3281 19.4641H26.4281V21.6375C27.1047 20.5922 28.3172 19.1031 31.025 19.1031C34.3797 19.1031 36.8953 21.2969 36.8953 26.0094V34.8078V34.8078Z" fill="url(#paint0_linear)"/>
<defs>
<linearGradient id="paint0_linear" x1="25" y1="0" x2="25" y2="50" gradientUnits="userSpaceOnUse">
<stop stop-color="#FF8279"/>
<stop offset="1" stop-color="#FF7088"/>
</linearGradient>
</defs>
</svg>
